<svg viewBox="0 0 1492 982" fill="none" xmlns="http://www.w3.org/2000/svg">
  <defs>
  </defs>
<path d="M-13 -10V981.5H1491.5V-10H-13ZM502.131 403.395C502.129 404.512 501.826 405.609 501.253 406.569C500.68 407.529 499.859 408.316 498.876 408.849C497.893 409.381 496.784 409.638 495.667 409.593C494.55 409.548 493.466 409.203 492.529 408.594C486.465 404.728 479.331 402.884 472.153 403.326C454.824 404.331 440.863 418.484 440.067 435.81C439.772 442.064 441.202 448.278 444.2 453.775C447.198 459.271 451.649 463.838 457.066 466.977C462.484 470.115 468.66 471.704 474.919 471.57C481.179 471.436 487.281 469.584 492.559 466.216C493.497 465.612 494.579 465.271 495.694 465.229C496.809 465.188 497.914 465.448 498.893 465.981C499.873 466.515 500.691 467.303 501.26 468.262C501.83 469.221 502.131 470.315 502.131 471.431V548.584C502.131 550.232 501.477 551.811 500.312 552.976C499.147 554.141 497.568 554.795 495.92 554.795H399.043C398.225 554.795 397.416 554.634 396.661 554.321C395.907 554.007 395.221 553.548 394.644 552.97C394.067 552.391 393.61 551.704 393.299 550.948C392.988 550.192 392.829 549.383 392.832 548.565V532.669C392.833 531.563 393.129 530.478 393.689 529.526C394.249 528.573 395.054 527.787 396.019 527.249C396.985 526.711 398.076 526.441 399.181 526.465C400.286 526.49 401.365 526.809 402.305 527.39C407.6 530.632 413.677 532.37 419.885 532.418C426.093 532.465 432.196 530.82 437.539 527.659C442.883 524.498 447.263 519.941 450.211 514.478C453.159 509.014 454.562 502.851 454.27 496.65C453.482 479.468 439.76 465.387 422.598 464.193C415.484 463.67 408.385 465.393 402.302 469.119C401.361 469.701 400.283 470.021 399.177 470.047C398.072 470.072 396.98 469.801 396.014 469.263C395.048 468.725 394.243 467.939 393.683 466.985C393.123 466.032 392.828 464.946 392.828 463.84V387.1C392.828 385.453 393.482 383.873 394.647 382.708C395.812 381.543 397.392 380.889 399.039 380.889H495.92C497.568 380.889 499.147 381.543 500.312 382.708C501.477 383.873 502.131 385.453 502.131 387.1V403.395ZM706.304 554.689L617.654 554.776C616.071 554.778 614.547 554.175 613.394 553.09L575.374 517.34C574.224 516.258 572.705 515.655 571.126 515.654H571.104C570.288 515.654 569.481 515.815 568.727 516.127C567.974 516.439 567.29 516.896 566.713 517.473C566.137 518.05 565.68 518.735 565.368 519.488C565.056 520.242 564.896 521.049 564.896 521.865V548.558C564.896 549.374 564.735 550.183 564.423 550.937C564.11 551.692 563.651 552.377 563.073 552.954C562.495 553.531 561.809 553.988 561.054 554.299C560.3 554.611 559.491 554.77 558.674 554.769L515.201 554.689C514.383 554.691 513.573 554.531 512.817 554.218C512.062 553.906 511.375 553.447 510.797 552.869C510.219 552.29 509.76 551.603 509.448 550.847C509.137 550.091 508.977 549.281 508.979 548.463V387.104C508.979 385.456 509.633 383.877 510.798 382.712C511.963 381.547 513.543 380.893 515.19 380.893H544.808C546.454 380.894 548.033 381.548 549.197 382.712L710.689 544.086C714.6 547.997 711.833 554.685 706.304 554.689ZM767.576 420.542V429.595C767.576 434.237 762.688 437.144 758.539 435.071C753.813 432.716 748.564 431.609 743.29 431.853C726.862 432.581 713.732 446.272 713.648 462.715C713.627 468.015 714.961 473.232 717.524 477.87C720.087 482.509 723.793 486.415 728.292 489.217C732.79 492.019 737.93 493.625 743.223 493.88C748.517 494.136 753.788 493.033 758.535 490.677C759.482 490.196 760.536 489.965 761.598 490.007C762.659 490.048 763.692 490.361 764.599 490.915C765.505 491.469 766.255 492.246 766.776 493.171C767.297 494.097 767.573 495.14 767.576 496.203V548.497C767.576 550.141 766.925 551.718 765.764 552.882C764.603 554.047 763.028 554.703 761.384 554.708L736.719 554.784C735.902 554.787 735.092 554.629 734.336 554.318C733.58 554.007 732.894 553.55 732.315 552.973L569.713 390.939C565.783 387.024 568.576 380.309 574.12 380.328L761.384 380.968C763.028 380.973 764.603 381.63 765.764 382.794C766.925 383.958 767.576 385.535 767.576 387.179V420.542ZM826.563 548.247C826.546 549.871 825.892 551.424 824.743 552.572C823.594 553.721 822.041 554.373 820.417 554.39L782.984 554.769C782.164 554.777 781.349 554.623 780.588 554.315C779.828 554.006 779.136 553.55 778.552 552.972C777.969 552.395 777.506 551.707 777.19 550.949C776.875 550.192 776.712 549.379 776.713 548.558V387.195C776.709 385.558 777.351 383.985 778.5 382.82C779.649 381.654 781.211 380.988 782.848 380.968L822.008 380.499C822.836 380.489 823.656 380.645 824.422 380.956C825.189 381.268 825.885 381.73 826.47 382.315C827.055 382.899 827.518 383.595 827.831 384.36C828.143 385.126 828.3 385.947 828.291 386.774L826.563 548.247ZM862.768 554.78H841.767C840.949 554.78 840.14 554.619 839.385 554.305C838.63 553.992 837.944 553.532 837.367 552.953C836.79 552.374 836.333 551.686 836.022 550.93C835.711 550.174 835.553 549.364 835.556 548.547L836.23 387.183C836.235 385.538 836.894 383.961 838.06 382.801C839.227 381.64 840.807 380.991 842.453 380.995H879.055C879.876 380.995 880.689 381.158 881.446 381.474C882.204 381.79 882.891 382.253 883.469 382.837C884.046 383.421 884.502 384.113 884.81 384.874C885.117 385.635 885.271 386.449 885.262 387.27L884.883 424.028C884.823 429.61 891.583 432.429 895.494 428.462L940.638 382.833C941.216 382.249 941.903 381.786 942.661 381.47C943.419 381.154 944.232 380.991 945.053 380.991H1024.34C1029.87 380.991 1032.64 387.683 1028.72 391.602L867.156 552.961C865.992 554.124 864.414 554.777 862.768 554.776V554.78ZM1089.53 548.463C1089.53 550.108 1088.87 551.686 1087.71 552.851C1086.55 554.015 1084.97 554.671 1083.33 554.674L1039.86 554.754C1039.04 554.755 1038.23 554.596 1037.48 554.284C1036.72 553.973 1036.04 553.515 1035.46 552.939C1034.88 552.362 1034.42 551.676 1034.11 550.922C1033.8 550.168 1033.64 549.359 1033.64 548.543V521.865C1033.64 520.218 1032.98 518.638 1031.82 517.473C1030.65 516.308 1029.07 515.654 1027.42 515.654H1027.4C1025.82 515.654 1024.3 516.257 1023.15 517.34L985.126 553.09C983.974 554.176 982.45 554.779 980.867 554.776L892.22 554.689C886.687 554.689 883.921 547.997 887.835 544.079L1049.31 382.712C1050.47 381.548 1052.05 380.894 1053.7 380.893H1083.32C1084.96 380.893 1086.54 381.547 1087.71 382.712C1088.87 383.877 1089.53 385.456 1089.53 387.104V548.463Z" 
 fill="white"/>
</svg>
